<svg width="116" height="22" viewBox="0 0 116 22" fill="none" xmlns="http://www.w3.org/2000/svg">
    <g clip-path="url(#g0vxfzj44a)">
        <path d="M114.78 5.07c-.819-1.655-1.946-2.815-3.386-3.681-1.435-.867-3.078-1.31-4.874-1.31-1.797 0-3.45.443-4.885 1.31-1.435.866-2.594 2.026-3.412 3.681-.819 1.65-1.233 3.637-1.239 5.914 0 2.254.404 4.236 1.218 5.891.818 1.66 1.956 2.949 3.391 3.815 1.429.872 3.072 1.31 4.879 1.31 1.807 0 3.439-.438 4.879-1.305 1.441-.866 2.589-2.148 3.408-3.809.818-1.649 1.233-3.637 1.238-5.902 0-2.277-.404-4.265-1.217-5.914zm-4.513 9.329c-.345.916-.845 1.61-1.488 2.07-.638.456-1.409.69-2.296.69-.888 0-1.659-.234-2.286-.69-.638-.46-1.137-1.154-1.483-2.07-.351-.933-.531-2.083-.531-3.415 0-1.338.186-2.488.542-3.42.351-.917.866-1.472 1.504-1.939.622-.45 1.371-.705 2.243-.705h.048c.898-.011 1.664.244 2.296.705.643.467 1.122 1.022 1.467 1.938.351.933.526 2.083.521 3.42 0 1.333-.181 2.488-.537 3.421V14.4zM76.534 1.314a.001.001 0 0 1-.002 0C75.502.523 74.454.013 72.165.013h-9.009a1 1 0 0 0-1 1v2.812c0 .45.364.813.813.813.45 0 .814.364.814.813v15.484a1 1 0 0 0 1 1h3.166a1 1 0 0 0 1-1v-4.719a1 1 0 0 1 1-1H72c1.541 0 3.466-.51 4.465-1.383 1.653-1.438 2.275-2.715 2.28-6.185.005-3.469-.886-5.312-2.209-6.334h-.002zm-3.075 8.584a.004.004 0 0 1 0 .006c-.537.548-1.301.791-2.304.802h-1.21a1 1 0 0 1-1-1.001l.008-4.12a1 1 0 0 1 1-.998h1.207c1.01 0 1.786.272 2.312.8.532.533.798 1.282.798 2.226 0 .965-.276 1.73-.81 2.28a.004.004 0 0 0 0 .005zM93.004 13.001v-.003c.067-.003 3.32-.19 3.178-5.675-.095-3.687-2.434-5.758-3.56-6.397-1.128-.638-2.239-.86-3.631-.91h-8.398a.006.006 0 0 0-.006.005.006.006 0 0 1-.005.006h-.808a.813.813 0 0 0-.813.813v2.988c0 .449.364.813.813.813.45 0 .813.364.813.813v15.478a1 1 0 0 0 1 1h4.133a.033.033 0 0 0 .034-.033l.009-5.498a1 1 0 0 1 1-.999h1.191c1.723 0 3.11 1.455 3.11 3.254v3.238c0 .006.005.01.01.01l4.344.028a1 1 0 0 0 1.007-.997l.007-2.495c-.42-3.995-2.479-5.152-3.426-5.436a.003.003 0 0 1-.002-.003zM90.285 9.87a.004.004 0 0 1 0 .006c-.537.547-1.301.79-2.304.802h-1.745a.466.466 0 0 1-.466-.466V5.558a1 1 0 0 1 1-1h1.216c1.01 0 1.786.272 2.312.8.532.532.798 1.282.798 2.226 0 .965-.276 1.73-.81 2.28a.004.004 0 0 0 0 .005z" fill="#fff"/>
        <path d="M32.368.012h-12.93a1 1 0 0 0-1 1v2.603a1 1 0 0 0 1 1h12.93a1 1 0 0 0 1-1V1.012a1 1 0 0 0-1-1z" fill="#FF7827"/>
        <path d="M19.438 8.64a1 1 0 0 0-1 1v11.322a1 1 0 0 0 1 1h12.93a1 1 0 0 0 1-1v-2.61a1 1 0 0 0-1-1h-7.764a1 1 0 0 1-1-1v-2.108a1 1 0 0 1 1-1h7.764a1 1 0 0 0 1-1V9.64a1 1 0 0 0-1-1h-12.93zM46.388.012a2 2 0 0 0-1.91 1.405l-5.584 17.922a2 2 0 0 0 1.91 2.595h1.23a2 2 0 0 0 1.91-1.406l.535-1.719a2 2 0 0 1 1.91-1.406h3.848a2 2 0 0 1 1.916 1.425l.505 1.681a2 2 0 0 0 1.915 1.425h.9a2 2 0 0 0 1.915-2.575L52.004 1.436A2 2 0 0 0 50.089.012h-3.701zm1.964 12.877c-1.01 0-1.734-.98-1.435-1.945l.488-1.571c.292-.943 1.63-.937 1.913.009l.472 1.576a1.501 1.501 0 0 1-1.438 1.93zM15.653 11.03a.002.002 0 0 1-.002-.004c.87-1.066 1.448-2.58 1.448-4.716C17.1-.075 10.515-.01 10.103 0H2.626a1 1 0 0 0-1 1v6.817c0 .449-.364.813-.813.813A.813.813 0 0 0 0 9.444v2.993c0 .45.364.814.813.814.45 0 .813.364.813.813v6.888a1 1 0 0 0 1 1h7.977c.41.01 6.981.08 7.006-6.172l.002-.07c.018-.355.102-3.38-1.957-4.68h-.001zm-3.997-4.393c0 1.837-1.617 1.983-1.787 1.993H7.793a1 1 0 0 1-1-1V5.61a1 1 0 0 1 1-1h2.09c.017 0 .032 0 .048.002.206.018 1.725.214 1.725 2.025zm-.92 10.628a.006.006 0 0 0-.005.006.006.006 0 0 1-.005.005H7.798a1 1 0 0 1-1-1v-2.02a1 1 0 0 1 1-1h2.843c1.063 0 1.924.9 1.924 2.01 0 1.109-.81 1.946-1.828 1.999z" fill="#fff"/>
    </g>
    <defs>
        <clipPath id="g0vxfzj44a">
            <path fill="#fff" d="M0 0h116v22H0z"/>
        </clipPath>
    </defs>
</svg>
