<svg width="156" height="28" viewBox="0 0 156 28" fill="none" xmlns="http://www.w3.org/2000/svg">
    <g clip-path="url(#1l7f8dgd0a)">
        <path d="M154.362 6.451c-1.101-2.106-2.617-3.583-4.554-4.685-1.93-1.103-4.139-1.668-6.555-1.668-2.416 0-4.639.565-6.569 1.667-1.93 1.103-3.488 2.58-4.589 4.686-1.101 2.099-1.658 4.629-1.665 7.526 0 2.87.543 5.393 1.637 7.499 1.1 2.113 2.63 3.752 4.56 4.855 1.923 1.11 4.132 1.668 6.562 1.668 2.43 0 4.625-.559 6.562-1.661 1.937-1.103 3.481-2.735 4.582-4.848 1.101-2.1 1.658-4.63 1.665-7.512 0-2.898-.543-5.428-1.636-7.527zm-6.069 11.873c-.465 1.166-1.137 2.05-2.002 2.636-.857.58-1.894.876-3.088.876-1.193 0-2.23-.297-3.073-.876-.858-.587-1.53-1.47-1.995-2.636-.471-1.188-.714-2.65-.714-4.347 0-1.703.25-3.166.729-4.353.471-1.166 1.165-1.873 2.023-2.466.836-.573 1.844-.898 3.016-.898h.064c1.208-.014 2.238.311 3.088.898.865.593 1.509 1.3 1.973 2.466.472 1.187.708 2.65.701 4.353 0 1.697-.243 3.167-.722 4.354v-.007zM102.922 1.676c-1.387-1.01-2.795-1.66-5.876-1.66H83.586v5.887h2.187v22.014h6.948v-8.552h4.103c2.073 0 4.661-.65 6.005-1.76 2.223-1.83 3.059-3.455 3.066-7.872.007-4.417-1.194-6.763-2.973-8.064v.007zM98.79 12.602c-.722.7-1.751 1.01-3.102 1.025h-2.974l.014-7.788h2.967c1.358 0 2.402.346 3.11 1.018.714.678 1.071 1.632 1.071 2.834 0 1.23-.371 2.204-1.093 2.904l.007.007zM125.073 16.543s4.467-.17 4.274-7.223c-.128-4.693-3.274-7.329-4.789-8.141-1.515-.813-3.009-1.096-4.882-1.16h-11.301v.015h-2.187v5.872h2.187v22.008h6.948v-.043l.014-8.268h2.945c2.316 0 4.182 1.851 4.182 4.14v4.135h.014l7.191.043.014-4.453c-.564-5.088-3.338-6.558-4.61-6.918v-.008zm-3.653-3.98c-.722.7-1.751 1.011-3.102 1.025h-2.974V5.8h2.981c1.358 0 2.402.347 3.109 1.018.715.679 1.073 1.633 1.073 2.834 0 1.23-.372 2.205-1.094 2.905l.007.007z" fill="#231F20"/>
        <path d="M44.876.016h-20.08v5.858h20.08V.016z" fill="#F26C1C"/>
        <path d="M24.797 10.996V27.95H44.875v-5.866h-13.13v-5.23h13.13v-5.858H24.798zM60.412.016l-9.185 27.9h7.29l1.895-5.766h9.157l1.83 5.767h6.826L69.368.016h-8.956zm1.88 16.388 2.773-8.459 2.68 8.46h-5.453zM21.044 14.034c1.172-1.357 1.951-3.287 1.951-6.007 0-8.39-9.435-8.029-9.435-8.029H2.187v10.983H0v5.88h2.187v11.074h12.045s9.45.36 9.45-7.901c0 0 .314-4.24-2.63-6h-.008zm-5.368-5.59c0 2.466-2.423 2.537-2.423 2.537H9.135V5.864h4.189s2.352.106 2.352 2.58zM14.432 21.97v.014h-5.29v-5.116h5.168c1.43 0 2.588 1.145 2.588 2.558 0 1.413-1.094 2.48-2.466 2.544z" fill="#231F20"/>
    </g>
    <defs>
        <clipPath id="1l7f8dgd0a">
            <path fill="#fff" d="M0 0h156v28H0z"/>
        </clipPath>
    </defs>
</svg>
