<svg width="48" height="48" viewBox="0 0 48 48" fill="none" xmlns="http://www.w3.org/2000/svg">
    <g clip-path="url(#swo205q8qa)">
        <path d="M15.791 36.11a10.988 10.988 0 0 0 2.572-4.603c-.506-.377-1.037-.737-1.535-1.14a8.846 8.846 0 0 1-2.982-9.429 9.351 9.351 0 0 1 4.765-5.58c4.826-2.443 9.54-2.186 13.946 1.2a8.7 8.7 0 0 1 3.043 9.386 9.729 9.729 0 0 1-4.869 5.726 12.857 12.857 0 0 1-7.577 1.44 1.431 1.431 0 0 0-.857.223 25.37 25.37 0 0 1-5.597 2.811 4.88 4.88 0 0 1-.763.171l-.146-.205z" fill="#3B1B1D"/>
    </g>
    <defs>
        <clipPath id="swo205q8qa">
            <path fill="#fff" d="M0 0h48v48H0z"/>
        </clipPath>
    </defs>
</svg>
