<svg width="29" height="29" viewBox="0 0 29 29" fill="none" xmlns="http://www.w3.org/2000/svg">
    <path fill-rule="evenodd" clip-rule="evenodd" d="M17.965 16.68a.909.909 0 0 1-1.285 1.285l-2.54-2.539-2.539 2.54a.906.906 0 0 1-1.482-.296.909.909 0 0 1 .197-.99l2.54-2.54-2.54-2.539a.91.91 0 1 1 1.285-1.285l2.54 2.54 2.539-2.54a.91.91 0 1 1 1.285 1.285l-2.539 2.54 2.54 2.539zM14.141 4.14c-5.523 0-10 4.478-10 10 0 5.523 4.477 10 10 10 5.522 0 10-4.477 10-10 0-5.522-4.478-10-10-10z" fill="#999"/>
</svg>
