<svg width="24" height="24" viewBox="0 0 24 24" fill="none" xmlns="http://www.w3.org/2000/svg">
    <path d="m21.846 20.149-4.607-4.607a8.53 8.53 0 0 0 1.736-5.156c0-4.736-3.854-8.59-8.59-8.59-4.735.002-8.588 3.855-8.588 8.59 0 4.736 3.853 8.59 8.589 8.59a8.533 8.533 0 0 0 5.156-1.736l4.607 4.607c.234.234.54.35.848.35a1.201 1.201 0 0 0 .849-2.049zm-17.65-9.762a6.196 6.196 0 0 1 6.19-6.19 6.195 6.195 0 0 1 6.188 6.189 6.195 6.195 0 0 1-6.188 6.188 6.194 6.194 0 0 1-6.19-6.187z" fill="#231F20"/>
</svg>
