<svg width="83" height="33" viewBox="0 0 83 33" fill="none" xmlns="http://www.w3.org/2000/svg">
<rect width="83" height="32.2843" rx="8" fill="white"/>
<path d="M25.9805 16.9355H14.8105V18.002H19.7461V21.8164H21.0312V18.002H25.9805V16.9355ZM15.4668 15.0488L15.9453 16.0879C17.9209 15.8145 19.6025 14.9053 20.3955 13.6406C21.1885 14.8916 22.8633 15.8145 24.832 16.0879L25.2969 15.0488C22.9658 14.7549 21.1133 13.4424 21.0449 12.082H24.9141V11.0293H21.0312V9.55273H19.7461V11.0293H15.8633V12.082H19.7461C19.6641 13.4561 17.791 14.7549 15.4668 15.0488ZM36.1031 9.55273H34.8043V21.7891H36.1031V15.5137H38.0035V14.4336H36.1031V9.55273ZM26.5738 18.5215L27.2984 19.5332C31.3316 17.5439 32.8902 14.3789 32.9039 10.8379H27.1891V11.918H31.5777C31.3111 14.7754 29.6432 16.9902 26.5738 18.5215Z" fill="#333333"/>
<path fill-rule="evenodd" clip-rule="evenodd" d="M65.0013 15.2317C65.1206 15.2317 65.2388 15.2552 65.3491 15.3009C65.4594 15.3465 65.5596 15.4135 65.644 15.4979C65.7284 15.5823 65.7954 15.6825 65.841 15.7928C65.8867 15.9031 65.9102 16.0213 65.9102 16.1406C65.9102 16.26 65.8867 16.3782 65.841 16.4885C65.7954 16.5987 65.7284 16.6989 65.644 16.7834C65.5596 16.8678 65.4594 16.9347 65.3491 16.9804C65.2388 17.0261 65.1206 17.0496 65.0013 17.0496L61.4105 17.0496L61.4105 20.6404C61.4108 20.7599 61.3875 20.8782 61.342 20.9886C61.2964 21.0991 61.2295 21.1994 61.145 21.2839C61.0605 21.3684 60.9602 21.4353 60.8498 21.4809C60.7393 21.5264 60.621 21.5497 60.5015 21.5493C60.3821 21.5495 60.2639 21.526 60.1535 21.4804C60.0432 21.4347 59.943 21.3678 59.8586 21.2833C59.7741 21.1989 59.7072 21.0987 59.6615 20.9884C59.6159 20.878 59.5925 20.7598 59.5926 20.6404V17.0496H56.0017C55.8824 17.0496 55.7642 17.0261 55.6539 16.9804C55.5436 16.9347 55.4434 16.8678 55.359 16.7834C55.2746 16.6989 55.2077 16.5987 55.162 16.4885C55.1163 16.3782 55.0928 16.26 55.0928 16.1406C55.0928 16.0213 55.1163 15.9031 55.162 15.7928C55.2077 15.6825 55.2746 15.5823 55.359 15.4979C55.4434 15.4135 55.5436 15.3465 55.6539 15.3009C55.7642 15.2552 55.8824 15.2317 56.0017 15.2317H59.5926V11.6409C59.5926 11.5215 59.6161 11.4033 59.6617 11.293C59.7074 11.1827 59.7744 11.0825 59.8588 10.9981C59.9432 10.9137 60.0434 10.8468 60.1537 10.8011C60.2639 10.7554 60.3821 10.7319 60.5015 10.7319C60.6209 10.7319 60.7391 10.7554 60.8494 10.8011C60.9596 10.8468 61.0598 10.9137 61.1442 10.9981C61.2286 11.0825 61.2956 11.1827 61.3413 11.293C61.387 11.4033 61.4105 11.5215 61.4105 11.6409L61.4105 15.2317L65.0013 15.2317ZM53.4304 9.06956C49.5253 12.9747 49.5253 19.3065 53.4304 23.2117C57.3356 27.1169 63.6674 27.1169 67.5726 23.2117C71.4777 19.3065 71.4777 12.9747 67.5726 9.06956C63.6674 5.1644 57.3356 5.1644 53.4304 9.06956Z" fill="#333333"/>
</svg>
