<svg width="24" height="24" viewBox="0 0 24 24" fill="none" xmlns="http://www.w3.org/2000/svg">
    <path opacity=".72" fill-rule="evenodd" clip-rule="evenodd" d="M7.5 11.648a3.751 3.751 0 1 0 0-7.502 3.751 3.751 0 0 0 0 7.502zM8 17.83c0-1.264.771-3.135 2.48-4.552-.843-.297-1.828-.483-2.98-.483-5.04 0-7 3.438-7 5.035 0 1.6 4.173 2.024 7 2.024.471 0 .98-.013 1.501-.04C8.34 19.286 8 18.626 8 17.83z" fill="#593EFF"/>
    <path fill-rule="evenodd" clip-rule="evenodd" d="M16.5 12.795c-5.04 0-7 3.437-7 5.035 0 1.598 4.173 2.024 7 2.024s7-.426 7-2.024-1.96-5.035-7-5.035zm0-1.147a3.751 3.751 0 1 0 0-7.502 3.751 3.751 0 0 0 0 7.502z" fill="#593EFF"/>
</svg>
