<svg width="305" height="305" viewBox="0 0 305 305" fill="none" xmlns="http://www.w3.org/2000/svg">
<g clip-path="url(#clip0_201_11648)">
<path d="M246.079 242.273C246.647 242.077 247.183 241.732 247.698 241.238C248.559 240.41 248.962 239.422 248.872 238.302C248.559 234.091 241.38 229.026 237.52 226.302L237.318 226.164C231.541 222.076 223.954 216.442 223.88 216.389L221.32 214.488L223.343 216.957C223.407 217.032 229.566 224.571 234.069 231.336L234.929 232.642C238.141 237.543 242.139 243.643 246.074 242.279L246.079 242.273ZM225.844 218.81C228.568 220.823 233.102 224.146 236.872 226.812L237.074 226.95C240.557 229.414 247.81 234.532 248.097 238.366C248.166 239.252 247.858 240.006 247.157 240.675C246.727 241.084 246.276 241.376 245.829 241.535C242.469 242.698 238.662 236.884 235.593 232.212C235.301 231.76 235.009 231.32 234.727 230.9C231.754 226.419 228.042 221.603 225.849 218.816L225.844 218.81Z" fill="#770000"/>
<path d="M148.838 189.719L224.192 217.031L194.756 142.718L148.838 189.719Z" fill="#FF7827"/>
<path d="M199.412 186.294C199.428 183.751 199.179 181.76 198.536 181.298C197.814 180.777 195.887 181.876 193.768 183.613C190.742 182.36 188.188 181.664 187.577 182.264C186.977 182.864 187.694 185.375 188.963 188.354C187.03 190.648 185.761 192.809 186.361 193.674C186.882 194.418 189.165 194.651 192 194.556C193.938 198.055 195.908 200.864 196.614 200.603C197.437 200.301 198.239 197.365 198.77 193.86C202.789 193.207 206.23 192.209 206.262 191.296C206.294 190.393 203.14 188.269 199.412 186.283L199.412 186.294Z" fill="#FFB226"/>
<path d="M165.399 186.305C164.592 185.954 163.169 187.303 161.762 189.273C158.656 188.662 156.139 188.46 155.768 189.129C155.481 189.639 156.272 191.088 157.599 192.894L170.172 197.449C173.21 196.228 175.551 194.895 175.333 194.126C175.094 193.292 171.617 191.896 167.661 190.733C166.928 188.397 166.116 186.618 165.399 186.305Z" fill="#FFB226"/>
<path d="M197.071 149.068C196.386 149.382 196.237 151.962 196.396 155.18C194.087 156.523 192.377 158.01 192.621 159.029C192.828 159.916 194.671 161.015 197.076 162.029C197.644 165.985 198.441 169.319 199.115 169.356C199.89 169.399 201.446 167.025 202.943 164.031C203.039 164.063 203.134 164.084 203.23 164.105L197.262 149.026C197.193 149.031 197.124 149.037 197.071 149.058L197.071 149.068Z" fill="#FFB226"/>
<path d="M185.108 175.781C185.82 176.8 185.57 178.197 184.551 178.908C183.537 179.615 182.135 179.37 181.423 178.351C180.717 177.337 180.961 175.935 181.981 175.223C183 174.512 184.397 174.762 185.108 175.781Z" fill="#FFB226"/>
<path d="M212.798 203.683C213.509 204.702 213.26 206.099 212.24 206.81C211.221 207.522 209.825 207.272 209.113 206.253C208.407 205.238 208.651 203.837 209.671 203.125C210.69 202.414 212.086 202.663 212.793 203.677L212.798 203.683Z" fill="#FFB226"/>
<path d="M183.86 201.464C183.579 201.66 183.367 201.904 183.207 202.18L187.354 203.683C187.45 203.12 187.338 202.52 186.988 202.021C186.276 201.002 184.874 200.757 183.86 201.464Z" fill="#FFB226"/>
<path d="M207.987 177.092C208.694 178.106 208.449 179.508 207.43 180.22C206.416 180.926 205.014 180.681 204.303 179.662C203.591 178.643 203.841 177.246 204.86 176.535C205.879 175.823 207.276 176.073 207.987 177.092Z" fill="#FFB226"/>
<g style="mix-blend-mode:multiply" opacity="0.4">
<path d="M201.356 205.812L154.769 188.907C152.109 185.408 159.697 173.583 171.983 161.966C173.406 180.878 185.735 195.82 201.356 205.823L201.356 205.812Z" fill="#E26340"/>
</g>
<g style="mix-blend-mode:color-dodge" opacity="0.2">
<path d="M193.036 148.155L217.014 205.361L180.266 154.16C187.854 147.507 190.976 146.785 193.025 148.155L193.036 148.155Z" fill="#FFFFB1"/>
</g>
<path d="M194.352 142.325C196.736 144.656 188.39 157.059 175.705 170.041C163.026 183.018 150.819 191.657 148.435 189.326C146.051 186.995 154.403 174.586 167.082 161.61C179.761 148.633 191.968 139.994 194.352 142.325Z" fill="#F06C21"/>
<path d="M192.356 149.547C180.606 156.327 162.224 173.392 156.15 186.815C161.348 183.475 168.447 177.47 175.71 170.036C183.218 162.348 189.213 154.856 192.356 149.547Z" fill="#92230A"/>
<path d="M91.5907 190.877C90.4066 188.62 89.3075 186.236 88.5217 186.13C87.6403 186.013 86.3925 188.641 85.3465 191.174C82.0864 191.503 78.2529 191.769 78.0034 192.592C77.7538 193.404 80.8281 195.597 83.3501 197.63C82.7236 200.561 82.5165 203.699 83.451 204.177C84.2634 204.586 86.4934 203.089 88.9571 201.666C92.3128 203.832 95.1269 204.947 95.6313 204.379C96.2153 203.731 95.7799 201.204 94.6012 197.859C97.8348 195.39 99.4383 192.915 99.0347 192.098C98.6365 191.285 95.8171 190.866 91.5907 190.877Z" fill="url(#paint0_linear_201_11648)"/>
<path d="M139.738 83.6857C140.81 81.5618 142.015 79.4433 141.777 78.7053C141.5 77.877 139.191 78.0628 137.03 78.3761C135.495 75.6841 133.78 72.4612 133.111 72.6417C132.458 72.8169 132.177 76.5708 131.794 79.7566C129.527 80.6327 127.287 81.9707 127.334 83.0167C127.377 83.9299 129.304 85.1458 131.274 86.606C131.131 90.5935 131.492 93.5881 132.081 93.7527C132.766 93.9492 134.332 92.3403 136.148 89.6855C139.148 91.3156 141.485 91.5174 141.888 90.7634C142.281 90.02 141.442 87.3546 139.748 83.6644L139.738 83.6857Z" fill="url(#paint1_linear_201_11648)"/>
<path d="M86.7377 118.305C86.7377 118.305 70.5646 126.853 68.462 120.567C66.3541 114.275 75.2583 115.597 75.2583 115.597C75.2583 115.597 68.977 110.855 72.492 107.712C76.0016 104.574 86.7324 118.31 86.7324 118.31L86.7377 118.305Z" fill="url(#paint2_linear_201_11648)"/>
<path d="M84.7674 95.5636C91.1548 87.7531 105.204 84.5355 109.335 96.3653C110.636 100.098 108.608 105.609 114.48 103.411C119.041 101.707 123.963 97.6768 128.896 100.762C133.026 103.342 132.793 108.142 132.156 112.379C131.497 116.754 131.396 118.522 136.637 117.391C146.715 115.225 146.762 120.805 146.332 128.86C146.375 127.278 146.035 130.071 148.493 130.809C150.803 131.504 153.272 131.403 155.587 132.115C162.256 134.143 159.447 143.823 158.656 148.787C159.527 143.308 159.463 138.975 153.155 137.828C151.334 137.494 146.662 137.738 145.631 135.826C144.431 133.596 145.324 129.986 145.706 127.66C147.336 117.726 129.501 131.058 130.26 117.705C130.441 114.551 132.708 110.765 130.011 108.291C128.29 106.708 125.758 106.427 123.522 106.613C120.522 106.862 112.616 112.145 110.317 109.995C107.848 107.685 110.938 103.894 108.963 101.781C106.861 99.5298 105.3 97.0874 102.379 95.7706C95.8804 92.8397 89.0257 97.0715 84.47 101.574C85.962 100.103 83.4559 97.183 84.7727 95.5689L84.7674 95.5636Z" fill="url(#paint3_linear_201_11648)"/>
<g style="mix-blend-mode:multiply" opacity="0.3">
<path d="M104.604 90.1262C104.217 91.4908 103.723 92.8235 103.293 94.0713C103.086 94.6606 102.905 95.2978 102.714 95.9456C105.406 97.2995 106.94 99.6198 108.953 101.781C109.606 102.476 109.701 103.358 109.632 104.308C109.834 103.65 110.041 102.986 110.254 102.338C109.786 100.767 110.015 98.3296 109.33 96.3703C108.289 93.397 106.622 91.3687 104.599 90.1316L104.604 90.1262Z" fill="#B14026"/>
</g>
<g style="mix-blend-mode:multiply" opacity="0.3">
<path d="M130.005 108.296C132.697 110.765 130.435 114.556 130.255 117.71C130.212 118.538 130.234 119.271 130.324 119.903C130.69 118.591 131.216 117.312 131.895 116.154C131.741 115.268 131.911 114.004 132.15 112.374C132.761 108.323 132.989 103.762 129.4 101.117C128.513 101.696 127.68 102.339 127.048 103.268C126.368 104.266 125.917 105.418 125.657 106.613C127.25 106.74 128.816 107.213 130 108.301L130.005 108.296Z" fill="#B14026"/>
</g>
<g style="mix-blend-mode:multiply" opacity="0.3">
<path d="M145.701 127.665C145.595 128.313 145.451 129.051 145.324 129.826C145.653 129.274 146.004 128.722 146.365 128.191C146.598 123.508 146.566 119.749 144.305 117.997C144.018 118.931 143.747 119.871 143.503 120.848C143.28 121.729 143.067 122.706 142.765 123.646C144.846 123.752 146.195 124.602 145.696 127.66L145.701 127.665Z" fill="#B14026"/>
</g>
<g style="mix-blend-mode:multiply" opacity="0.3">
<path d="M156.628 139.156C159.426 141.094 159.319 144.598 158.65 148.793C159.314 144.625 161.396 137.159 158.119 133.65C157.806 135.524 157.281 137.388 156.622 139.15L156.628 139.156Z" fill="#B14026"/>
</g>
<path d="M176.486 127.793C175.706 125.961 176.369 122.919 176.598 120.97C176.895 118.336 178.679 117.328 180.882 116.303C178.589 115.05 175.52 114.54 174.978 111.545C174.537 109.087 175.063 106.406 175.185 103.937C174.867 99.3812 181.275 99.2591 184.376 97.4856C182.369 96.1476 177.601 95.7759 176.98 92.999C176.465 90.7 177.155 87.3761 177.665 85.2735C179.353 78.2967 186.484 74.872 192.595 72.5092C191.608 72.8915 192.978 77.1392 192.441 78.079C191.921 78.9923 188.735 79.8312 187.758 80.3303C185.746 81.3657 183.787 82.5285 182.051 83.9886C180.59 85.2257 179.295 86.6806 178.403 88.3797C179.874 89.7867 182.024 90.1849 183.829 90.9814C187.827 92.7389 186.495 96.8963 186.319 100.48C186.68 102.689 182.008 104.866 179.805 105.434C178.87 105.678 175.398 106.454 176.529 107.744C177.58 108.933 179.141 109.549 180.585 110.112C183.898 111.397 183.426 114.28 183.383 117.137C183.357 118.724 183.298 120.651 182.013 121.777C180.888 122.754 179.353 123.035 178.084 123.784C179.348 125.271 181.089 126.439 181.854 128.297C182.815 130.628 181.833 133.395 181.928 135.826C181.774 132.253 177.766 130.825 176.475 127.793L176.486 127.793Z" fill="#7CDE3E"/>
<path d="M176.172 126.449C176.225 126.938 176.321 127.394 176.485 127.793C177.776 130.824 181.79 132.247 181.938 135.826C181.838 133.4 182.825 130.628 181.864 128.297C181.121 126.502 179.342 125.202 178.094 123.784C177.839 123.901 176.284 125.616 176.172 126.449Z" fill="url(#paint4_linear_201_11648)"/>
<path d="M180.596 110.112C179.152 109.549 177.58 109.018 176.667 107.722C176.391 107.329 176.438 106.984 176.401 106.915C175.153 108.736 175.148 111.057 175.281 112.538C176.162 114.481 178.392 115.097 180.304 116.021C181.509 116.642 182.337 117.152 182.868 118.161C183.017 118.437 183.16 118.761 183.272 119.095C183.367 118.437 183.383 117.763 183.394 117.136C183.436 114.28 183.914 111.391 180.596 110.112Z" fill="url(#paint5_linear_201_11648)"/>
<path d="M183.834 90.9868C182.05 90.2009 179.926 89.7974 178.455 88.4328C177.76 89.4894 177.25 90.7744 176.831 91.8947C176.862 92.277 176.9 92.654 176.979 92.9991C177.563 95.6114 181.827 96.0946 183.993 97.2627C185.161 97.7087 185.905 98.845 186.197 100.071C186.239 100.252 186.282 100.433 186.324 100.613C186.324 100.571 186.324 100.528 186.319 100.48C186.489 96.9017 187.827 92.7389 183.829 90.9814L183.834 90.9868Z" fill="url(#paint6_linear_201_11648)"/>
<path d="M92.7424 174.836C93.0132 174.331 93.8574 171.618 94.3087 170.36C96.406 163.218 102.066 167.392 106.861 170.031C111.655 172.67 113.604 158.615 119.174 158.355C125.062 158.084 124.356 170.461 131.508 162.544C133.557 160.272 136.037 160.033 137.789 162.974C140.12 166.909 142.01 167.195 145.536 164.126C143.232 166.133 145 168.953 141.331 170.583C137.125 172.452 136.887 166.935 133.876 165.815C129.915 164.339 128.561 170.896 124.802 169.951C121.064 169.016 120.974 163.096 116.434 163.282C109.377 163.574 111.4 180.379 102.247 172.829C100.266 171.188 92.2168 169.638 94.5955 174.374C95.0786 175.335 97.0538 176.684 96.6928 177.788C96.491 178.404 94.4627 181.314 95.0096 181.882C93.0822 179.859 92.0044 177.645 92.7371 174.831L92.7424 174.836Z" fill="url(#paint7_linear_201_11648)"/>
<path d="M94.4149 172.08C94.0432 172.335 93.714 172.654 93.4166 173.015C93.1299 173.864 92.8698 174.602 92.7423 174.846C92.0096 177.661 93.0875 179.875 95.0148 181.898C94.468 181.33 96.5015 178.425 96.698 177.804C97.0644 176.694 95.0839 175.351 94.6007 174.39C94.0591 173.317 94.075 172.579 94.4096 172.085L94.4149 172.08Z" fill="#00A290"/>
<g style="mix-blend-mode:multiply" opacity="0.3">
<path d="M115.606 160.638C113.126 163.744 111.364 169.043 108.948 170.153C109.112 171.082 109.139 172.075 109.017 173.036C110.88 170.323 111.82 165.252 114.772 163.734C114.82 162.677 115.181 161.615 115.606 160.638Z" fill="#008689"/>
</g>
<g style="mix-blend-mode:multiply" opacity="0.3">
<path d="M130.844 163.251C129.06 165.035 127.801 165.433 126.798 165.077C126.596 166.192 126.161 167.275 125.593 168.173C125.242 168.725 124.849 169.319 124.387 169.813C124.525 169.866 124.653 169.919 124.802 169.951C126.718 170.434 128.014 168.969 129.341 167.61C129.835 166.15 130.339 164.7 130.839 163.245L130.844 163.251Z" fill="#008689"/>
</g>
<g style="mix-blend-mode:multiply" opacity="0.3">
<path d="M138.554 164.142C138.448 164.429 138.347 164.71 138.251 164.987C137.795 166.282 137.375 167.551 136.759 168.762C137.827 170.317 138.936 171.65 141.336 170.588C145.005 168.958 143.237 166.139 145.541 164.132C142.409 166.861 140.566 166.93 138.559 164.148L138.554 164.142Z" fill="#008689"/>
</g>
<path d="M94.3564 132.561C98.9121 130.172 106.314 128.717 110.625 129.513C117.804 130.278 126.724 130.989 131.311 137.467C136.095 144.216 140.136 148.554 148.828 148.177C144.771 148.357 140.672 148.686 136.791 147.237C130.122 144.752 128.949 138.545 124.122 134.26C119.28 129.959 111.894 129.455 105.91 130.777C101.859 131.674 97.4573 133.963 94.3618 132.556L94.3564 132.561ZM95.1529 132.699C94.9724 132.678 94.7865 132.662 94.606 132.641C94.76 132.678 94.9458 132.694 95.1529 132.699Z" fill="url(#paint8_linear_201_11648)"/>
<path d="M87.0292 153.056C90.884 149.467 92.6149 144.316 98.8909 144.847C105.119 145.384 107.514 150.316 112.558 143.998C110.476 146.6 111.422 149.488 107.944 151.511C105.4 152.992 102.555 151.389 100.202 150.322C92.6946 146.892 89.7159 153.725 85.3248 157.808C86.6416 156.587 85.7071 154.283 87.0239 153.051L87.0292 153.056Z" fill="url(#paint9_linear_201_11648)"/>
<path d="M153.739 100.576C155.672 94.9688 157.955 89.5106 162.999 85.9956C161.709 89.6115 161.422 90.3548 158.582 92.8769C156.006 95.1653 154.068 98.1652 154.392 101.749C154.695 105.11 156.994 107.972 158.608 110.797C160.339 113.823 156.792 115.055 157.79 117.253C155.284 111.753 151.557 106.9 153.739 100.576ZM161.534 90.0946C161.502 90.1796 161.475 90.2592 161.443 90.3442C161.475 90.2698 161.507 90.1849 161.534 90.0946Z" fill="#FF6126"/>
<path d="M123.219 187.452C127.34 179.848 136.265 177.315 144.367 178.643C144.081 178.6 143.067 182.652 142.897 183.066C142.849 183.177 132.644 183.464 131.178 184.016C128.194 185.142 125.157 187.223 123.193 189.761C121.78 191.588 119.625 197.163 119.651 199.472C119.603 195.273 121.249 191.099 123.219 187.462L123.219 187.452Z" fill="#7CDE3E"/>
<path d="M76.0175 131.722C76.729 132.742 76.1343 134.377 74.6901 135.386C73.2512 136.389 71.5096 136.379 70.7928 135.365C70.0813 134.345 70.676 132.71 72.1149 131.706C73.5538 130.703 75.3007 130.708 76.0122 131.727L76.0175 131.722Z" fill="#FF6126"/>
<path d="M65.5624 130.803C66.2686 131.818 65.6792 133.458 64.2403 134.462C62.8014 135.465 61.0545 135.46 60.3484 134.446C59.6369 133.426 60.2262 131.786 61.6758 130.782C63.1147 129.779 64.8562 129.789 65.573 130.803L65.5624 130.803Z" fill="#7CDE3E"/>
<path d="M111.284 76.948C113.668 77.9515 115.075 79.9957 114.432 81.5195C113.79 83.0434 111.337 83.4682 108.963 82.4647C106.579 81.4611 105.172 79.4169 105.815 77.8931C106.457 76.3692 108.905 75.9498 111.284 76.948Z" fill="#7CDE3E"/>
<path d="M121.086 61.0508C121.909 62.1711 121.994 63.5091 121.277 64.0348C120.56 64.5604 119.307 64.0826 118.489 62.9569C117.666 61.8366 117.581 60.4986 118.298 59.9729C119.015 59.4473 120.263 59.9305 121.086 61.0508Z" fill="#FF6126"/>
<path d="M129.883 53.2723C129.883 53.2723 118.165 44.3363 121.807 39.7381C125.444 35.1453 127.478 42.9664 127.478 42.9664C127.478 42.9664 130.159 33.563 134.524 37.3647C138.888 41.1664 128.439 47.7716 129.883 53.2723Z" fill="url(#paint10_linear_201_11648)"/>
<path d="M58.3526 97.2678L36.3284 106.252L35.0222 98.489C35.0222 98.489 55.6925 94.098 56.9509 94.5918C58.2093 95.0856 58.3579 97.2625 58.3579 97.2625L58.3526 97.2678Z" fill="url(#paint11_linear_201_11648)"/>
<path d="M75.3745 72.6099C75.3745 72.6099 55.6068 65.872 58.0333 62.8083C60.4598 59.7447 65.3074 58.189 65.3074 58.189L75.3745 72.6099Z" fill="url(#paint12_linear_201_11648)"/>
<path d="M70.2142 151.479C70.2142 151.479 56.5207 159.215 58.5596 160.829C60.5932 162.438 62.9719 164.116 62.9719 164.116L71.8389 153.38L70.2142 151.49L70.2142 151.479Z" fill="url(#paint13_linear_201_11648)"/>
<path d="M82.6387 167.036C83.5838 168.395 82.7714 170.599 80.8228 171.953C78.8742 173.317 76.5273 173.317 75.5769 171.963C74.6371 170.609 75.4388 168.406 77.3928 167.047C79.3361 165.687 81.6883 165.682 82.6387 167.036Z" fill="#FFB026"/>
<path d="M148.292 64.6084C148.881 65.4526 148.329 66.865 147.06 67.7517C145.791 68.6384 144.283 68.6702 143.688 67.8207C143.093 66.9712 143.646 65.5694 144.92 64.6774C146.194 63.7854 147.702 63.7535 148.297 64.6031L148.292 64.6084Z" fill="#7CDE3E"/>
<path d="M95.7375 67.2738C96.449 68.2933 96.3375 69.5941 95.488 70.1888C94.6438 70.7782 93.3801 70.4384 92.6686 69.4189C91.9571 68.3995 92.0686 67.0986 92.9181 66.5039C93.7677 65.9093 95.0261 66.2544 95.7375 67.2738Z" fill="#FF6126"/>
<path d="M108.427 53.7343C109.075 54.6688 108.852 55.9537 107.917 56.6015C106.988 57.2545 105.703 57.0209 105.05 56.0917C104.397 55.1625 104.62 53.8776 105.56 53.2245C106.489 52.5715 107.774 52.8051 108.427 53.7343Z" fill="#FFB026"/>
<path d="M167.21 66.0684C168.612 66.9498 168.851 69.079 167.746 70.8311C166.647 72.578 164.613 73.2842 163.217 72.3975C161.815 71.5161 161.576 69.3869 162.681 67.6348C163.78 65.8879 165.808 65.187 167.21 66.0684Z" fill="url(#paint14_linear_201_11648)"/>
<path d="M176.018 55.2954C176.486 55.975 176.257 56.9573 175.493 57.4883C174.728 58.0192 173.73 57.9024 173.252 57.2228C172.779 56.5485 173.013 55.5609 173.778 55.0299C174.542 54.499 175.54 54.6158 176.018 55.2954Z" fill="#FFB226"/>
<path d="M159.554 158.849C160.472 160.16 160.148 161.971 158.837 162.889C157.525 163.808 155.715 163.484 154.796 162.173C153.878 160.861 154.201 159.051 155.513 158.132C156.83 157.219 158.635 157.537 159.548 158.854L159.554 158.849Z" fill="#FF6126"/>
<path d="M173.109 139.856C173.964 142.07 174.097 144.083 173.406 144.348C172.711 144.619 171.458 143.037 170.598 140.817C169.737 138.598 169.605 136.586 170.295 136.32C170.991 136.049 172.244 137.632 173.104 139.851L173.109 139.856Z" fill="#FF6126"/>
<path d="M51.0677 117.88C49.8837 118.703 51.1686 120.54 52.3473 119.712C53.5314 118.889 52.2517 117.046 51.0677 117.88Z" fill="#7CDE3E"/>
<path d="M45.2533 137.01C44.0799 137.833 45.3489 139.644 46.517 138.826C47.6851 138.008 46.4214 136.193 45.2533 137.01Z" fill="#7CDE3E"/>
<path d="M81.4654 48.1383C80.2866 48.9666 81.5662 50.7984 82.7503 49.9754C83.9343 49.1524 82.6494 47.3153 81.4654 48.1383Z" fill="#FF6126"/>
<path d="M111.331 214.026C110.078 214.897 111.437 216.84 112.685 215.964C113.938 215.094 112.579 213.15 111.331 214.026Z" fill="#FFB026"/>
<path d="M130.951 209.274C130.574 209.428 130.276 209.704 130.192 210.161C130.075 210.809 130.521 211.446 131.169 211.563C131.816 211.679 132.448 211.228 132.57 210.586C132.65 210.124 132.469 209.763 132.167 209.492C132.082 208.897 131.243 208.749 130.956 209.28L130.951 209.274Z" fill="#FFB026"/>
<path d="M214.279 120.232C213.005 121.124 214.386 123.099 215.66 122.207C216.94 121.32 215.554 119.34 214.279 120.232Z" fill="#FF6126"/>
<path d="M204.329 104.017C202.567 105.248 204.473 107.983 206.236 106.751C207.998 105.519 206.087 102.79 204.329 104.017Z" fill="#FF6126"/>
<path d="M191.448 105.185C190.025 106.183 191.565 108.392 192.993 107.399C194.421 106.406 192.876 104.192 191.448 105.185Z" fill="#FF6126"/>
<path d="M166.514 152.153C166.27 152.079 166.031 152.074 165.771 152.164C165.075 152.403 164.805 153.279 165.219 153.873C165.633 154.468 166.546 154.521 167.013 153.948C167.189 153.73 167.268 153.502 167.279 153.247C167.364 152.727 167.035 152.249 166.514 152.153Z" fill="#FF6126"/>
<path d="M149.646 155.111C148.717 155.753 149.725 157.198 150.649 156.55C151.579 155.897 150.575 154.468 149.646 155.111Z" fill="#FF6126"/>
<path d="M170.183 164.912C168.813 165.868 170.295 167.987 171.665 167.031C173.035 166.075 171.553 163.957 170.183 164.912Z" fill="#FFB026"/>
<path d="M181.796 152.621C180.946 153.215 181.865 154.527 182.709 153.937C183.553 153.348 182.64 152.031 181.796 152.621Z" fill="#FFB026"/>
<path d="M156.177 177.846C156.15 177.82 156.124 177.793 156.097 177.767C155.879 177.581 155.747 177.459 156.177 177.846Z" fill="#FF6126"/>
<path d="M156.66 175.113C156.119 175.304 155.721 175.776 155.625 176.339C155.524 176.886 155.731 177.38 156.103 177.762C156.257 177.895 156.459 178.065 156.533 178.086C156.782 178.176 157.064 178.277 157.34 178.224C157.558 178.176 157.749 178.123 157.924 178.033C157.945 178.022 157.966 178.001 157.993 177.996C158.041 177.969 158.083 177.948 158.12 177.911C158.45 177.688 158.694 177.348 158.774 176.907C158.986 175.718 157.802 174.714 156.666 175.118L156.66 175.113Z" fill="#FFB026"/>
<path d="M98.8481 113.234C97.9402 113.866 98.9225 115.273 99.8251 114.636C100.728 114.009 99.7454 112.602 98.8481 113.234Z" fill="#FF6126"/>
<path d="M106.988 115.575C106.213 116.117 107.057 117.322 107.832 116.78C108.608 116.239 107.763 115.034 106.988 115.575Z" fill="#FF6126"/>
<path d="M159.038 54.308C157.722 55.2319 159.145 57.2814 160.472 56.3575C161.794 55.439 160.366 53.3842 159.038 54.308Z" fill="#7CDE3E"/>
<path d="M162.935 49.1043C162.134 49.6618 162.999 50.899 163.801 50.3415C164.603 49.784 163.737 48.5468 162.935 49.1043Z" fill="#FFB226"/>
<path d="M63.402 85.5069C62.9826 85.7989 62.8817 86.3883 63.1737 86.8077C63.4657 87.2272 64.0551 87.3281 64.4692 87.0414C64.8887 86.7493 64.9896 86.16 64.7029 85.7458C64.4108 85.3264 63.8215 85.2255 63.402 85.5175L63.402 85.5069Z" fill="#7CDE3E"/>
<path d="M55.0603 83.3673C53.993 84.1159 55.1505 85.7619 56.2177 85.0239C57.2797 84.2805 56.1275 82.6292 55.0603 83.3673Z" fill="#7CDE3E"/>
</g>
<defs>
<linearGradient id="paint0_linear_201_11648" x1="80.2253" y1="199.269" x2="99.2249" y2="192.682" gradientUnits="userSpaceOnUse">
<stop stop-color="#FFDB00"/>
<stop offset="0.06" stop-color="#FFE316"/>
<stop offset="0.16" stop-color="#FFEF35"/>
<stop offset="0.26" stop-color="#FFF84B"/>
<stop offset="0.35" stop-color="#FFFD59"/>
<stop offset="0.43" stop-color="#FFFF5E"/>
<stop offset="0.51" stop-color="#FEF247"/>
<stop offset="0.64" stop-color="#FCE028"/>
<stop offset="0.77" stop-color="#FBD312"/>
<stop offset="0.89" stop-color="#FBCB04"/>
<stop offset="1" stop-color="#FBC900"/>
</linearGradient>
<linearGradient id="paint1_linear_201_11648" x1="127.963" y1="85.0304" x2="142.223" y2="80.0868" gradientUnits="userSpaceOnUse">
<stop stop-color="#FFDB00"/>
<stop offset="0.06" stop-color="#FFE316"/>
<stop offset="0.16" stop-color="#FFEF35"/>
<stop offset="0.26" stop-color="#FFF84B"/>
<stop offset="0.35" stop-color="#FFFD59"/>
<stop offset="0.43" stop-color="#FFFF5E"/>
<stop offset="0.51" stop-color="#FEF247"/>
<stop offset="0.64" stop-color="#FCE028"/>
<stop offset="0.77" stop-color="#FBD312"/>
<stop offset="0.89" stop-color="#FBCB04"/>
<stop offset="1" stop-color="#FBC900"/>
</linearGradient>
<linearGradient id="paint2_linear_201_11648" x1="67.347" y1="117.417" x2="84.3671" y2="111.517" gradientUnits="userSpaceOnUse">
<stop stop-color="#FF5690"/>
<stop offset="0.23" stop-color="#FA4D7F"/>
<stop offset="0.72" stop-color="#F23D61"/>
<stop offset="1" stop-color="#F03856"/>
</linearGradient>
<linearGradient id="paint3_linear_201_11648" x1="94.3296" y1="130.077" x2="150.605" y2="110.568" gradientUnits="userSpaceOnUse">
<stop stop-color="#FFB226"/>
<stop offset="0.25" stop-color="#FF8B26"/>
<stop offset="0.49" stop-color="#FF6C26"/>
<stop offset="0.63" stop-color="#FF6126"/>
<stop offset="1" stop-color="#FFB226"/>
</linearGradient>
<linearGradient id="paint4_linear_201_11648" x1="177.434" y1="130.625" x2="182.088" y2="129.011" gradientUnits="userSpaceOnUse">
<stop stop-color="#3DC540"/>
<stop offset="0.56" stop-color="#43B139"/>
<stop offset="1" stop-color="#47A736"/>
</linearGradient>
<linearGradient id="paint5_linear_201_11648" x1="175.869" y1="114.303" x2="182.85" y2="111.883" gradientUnits="userSpaceOnUse">
<stop stop-color="#3DC540"/>
<stop offset="0.56" stop-color="#43B139"/>
<stop offset="1" stop-color="#47A736"/>
</linearGradient>
<linearGradient id="paint6_linear_201_11648" x1="177.965" y1="95.9811" x2="186.166" y2="93.1379" gradientUnits="userSpaceOnUse">
<stop stop-color="#3DC540"/>
<stop offset="0.56" stop-color="#43B139"/>
<stop offset="1" stop-color="#47A736"/>
</linearGradient>
<linearGradient id="paint7_linear_201_11648" x1="92.4452" y1="177.437" x2="143.939" y2="159.586" gradientUnits="userSpaceOnUse">
<stop stop-color="#00C4B8"/>
<stop offset="0.35" stop-color="#00FDD4"/>
<stop offset="0.53" stop-color="#00EACA"/>
<stop offset="0.83" stop-color="#00CEBD"/>
<stop offset="1" stop-color="#00C4B8"/>
</linearGradient>
<linearGradient id="paint8_linear_201_11648" x1="102.532" y1="149.529" x2="140.629" y2="131.169" gradientUnits="userSpaceOnUse">
<stop stop-color="#00C4B8"/>
<stop offset="0.35" stop-color="#00FDD4"/>
<stop offset="0.53" stop-color="#00EACA"/>
<stop offset="0.83" stop-color="#00CEBD"/>
<stop offset="1" stop-color="#00C4B8"/>
</linearGradient>
<linearGradient id="paint9_linear_201_11648" x1="84.1291" y1="154.412" x2="112.714" y2="144.502" gradientUnits="userSpaceOnUse">
<stop stop-color="#FFDB00"/>
<stop offset="0.06" stop-color="#FFE316"/>
<stop offset="0.16" stop-color="#FFEF35"/>
<stop offset="0.26" stop-color="#FFF84B"/>
<stop offset="0.35" stop-color="#FFFD59"/>
<stop offset="0.43" stop-color="#FFFF5E"/>
<stop offset="0.51" stop-color="#FEF247"/>
<stop offset="0.64" stop-color="#FCE028"/>
<stop offset="0.77" stop-color="#FBD312"/>
<stop offset="0.89" stop-color="#FBCB04"/>
<stop offset="1" stop-color="#FBC900"/>
</linearGradient>
<linearGradient id="paint10_linear_201_11648" x1="122.666" y1="47.1462" x2="136.678" y2="42.2886" gradientUnits="userSpaceOnUse">
<stop stop-color="#FF5690"/>
<stop offset="0.23" stop-color="#FA4D7F"/>
<stop offset="0.72" stop-color="#F23D61"/>
<stop offset="1" stop-color="#F03856"/>
</linearGradient>
<linearGradient id="paint11_linear_201_11648" x1="35.0274" y1="102.523" x2="57.6169" y2="94.6914" gradientUnits="userSpaceOnUse">
<stop stop-color="#00C4B8"/>
<stop offset="0.35" stop-color="#00FDD4"/>
<stop offset="0.53" stop-color="#00EACA"/>
<stop offset="0.83" stop-color="#00CEBD"/>
<stop offset="1" stop-color="#00C4B8"/>
</linearGradient>
<linearGradient id="paint12_linear_201_11648" x1="59.7027" y1="69.0053" x2="72.5654" y2="64.5462" gradientUnits="userSpaceOnUse">
<stop stop-color="#FFB226"/>
<stop offset="0.25" stop-color="#FF8B26"/>
<stop offset="0.49" stop-color="#FF6C26"/>
<stop offset="0.63" stop-color="#FF6126"/>
<stop offset="1" stop-color="#FFB226"/>
</linearGradient>
<linearGradient id="paint13_linear_201_11648" x1="58.3523" y1="160.566" x2="72.6055" y2="155.625" gradientUnits="userSpaceOnUse">
<stop stop-color="#3DC540"/>
<stop offset="0.56" stop-color="#43B139"/>
<stop offset="1" stop-color="#47A736"/>
</linearGradient>
<linearGradient id="paint14_linear_201_11648" x1="161.888" y1="70.3054" x2="168.443" y2="68.0328" gradientUnits="userSpaceOnUse">
<stop stop-color="#00C4B8"/>
<stop offset="0.35" stop-color="#00FDD4"/>
<stop offset="0.53" stop-color="#00EACA"/>
<stop offset="0.83" stop-color="#00CEBD"/>
<stop offset="1" stop-color="#00C4B8"/>
</linearGradient>
<clipPath id="clip0_201_11648">
<rect width="170.775" height="260.349" fill="white" transform="translate(0 120.758) rotate(-45)"/>
</clipPath>
</defs>
</svg>
